HIERARCHY
ROOT root
{
	OFFSET	0	13.1	24.9
	CHANNELS 6  Xposition Yposition Zposition Xrotation Yrotation Zrotation
	JOINT spine_1
	{
		OFFSET	0	9.99999	0
		CHANNELS 3  Xrotation Yrotation Zrotation
		JOINT spine_2
		{
			OFFSET	0	112	-10
			CHANNELS 3  Xrotation Yrotation Zrotation
			JOINT spine_3
			{
				OFFSET	0	206.5	19.3
				CHANNELS 3  Xrotation Yrotation Zrotation
				JOINT spine_4
				{
					OFFSET	0	110.4	14.6
					CHANNELS 3  Xrotation Yrotation Zrotation
					JOINT neck_1
					{
						OFFSET	0	71.8	-50.3
						CHANNELS 3  Xrotation Yrotation Zrotation
						JOINT neck_2
						{
							OFFSET	0	86.2	-25.8
							CHANNELS 3  Xrotation Yrotation Zrotation
							JOINT head_ee
							{
								OFFSET	0	179.8	-8.7
								CHANNELS 3  Xrotation Yrotation Zrotation
								End Site
								{
									OFFSET	1	0	0
								}
							}
						}
					}
					JOINT left_clavicle
					{
						OFFSET	-43.2	22.4	-70.8
						CHANNELS 3  Xrotation Yrotation Zrotation
						JOINT left_shoulder
						{
							OFFSET	-93.9	-5.79999	48.7
							CHANNELS 3  Xrotation Yrotation Zrotation
							JOINT left_elbow
							{
								OFFSET	-291.4	-30.8	15.2
								CHANNELS 3  Xrotation Yrotation Zrotation
								JOINT left_lowarm_twist
								{
									OFFSET	-110.7	-3.89999	13.6
									CHANNELS 3  Xrotation Yrotation Zrotation
									JOINT left_hand
									{
										OFFSET	-110.7	-3.89999	13.6
										CHANNELS 3  Xrotation Yrotation Zrotation
										JOINT left_ee
										{
											OFFSET	-80.8	-5.10001	12.1
											CHANNELS 3  Xrotation Yrotation Zrotation
											End Site
											{
												OFFSET	1	0	0
											}
										}
									}
								}
							}
						}
					}
					JOINT right_clavicle
					{
						OFFSET	43.2	22.4	-70.8
						CHANNELS 3  Xrotation Yrotation Zrotation
						JOINT right_shoulder
						{
							OFFSET	93.9	-5.79999	48.7
							CHANNELS 3  Xrotation Yrotation Zrotation
							JOINT right_elbow
							{
								OFFSET	291.4	-30.8	15.2
								CHANNELS 3  Xrotation Yrotation Zrotation
								JOINT right_lowarm_twist
								{
									OFFSET	110.7	-3.89999	13.6
									CHANNELS 3  Xrotation Yrotation Zrotation
									JOINT right_hand
									{
										OFFSET	110.7	-3.89999	13.6
										CHANNELS 3  Xrotation Yrotation Zrotation
										JOINT right_ee
										{
											OFFSET	80.8	-5.10001	12.1
											CHANNELS 3  Xrotation Yrotation Zrotation
											End Site
											{
												OFFSET	1	0	0
											}
										}
									}
								}
							}
						}
					}
				}
			}
		}
	}
	JOINT left_hip
	{
		OFFSET	-82.8	-127.5	0.300001
		CHANNELS 3  Xrotation Yrotation Zrotation
		JOINT left_knee
		{
			OFFSET	-28.2	-396.7	2.2
			CHANNELS 3  Xrotation Yrotation Zrotation
			JOINT left_ankle
			{
				OFFSET	-11.7	-411.3	35.4
				CHANNELS 3  Xrotation Yrotation Zrotation
				JOINT left_toes
				{
					OFFSET	0	-60	-88.6
					CHANNELS 3  Xrotation Yrotation Zrotation
					JOINT left_foot_ee
					{
						OFFSET	-22.5	-16.5	-42.2
						CHANNELS 3  Xrotation Yrotation Zrotation
						End Site
						{
							OFFSET	1	0	0
						}
					}
				}
			}
		}
	}
	JOINT right_hip
	{
		OFFSET	82.8	-127.5	0.300001
		CHANNELS 3  Xrotation Yrotation Zrotation
		JOINT right_knee
		{
			OFFSET	28.2	-396.7	2.2
			CHANNELS 3  Xrotation Yrotation Zrotation
			JOINT right_ankle
			{
				OFFSET	11.7	-411.3	35.4
				CHANNELS 3  Xrotation Yrotation Zrotation
				JOINT right_toes
				{
					OFFSET	0	-60	-88.6
					CHANNELS 3  Xrotation Yrotation Zrotation
					JOINT right_foot_ee
					{
						OFFSET	22.5	-16.5	-42.2
						CHANNELS 3  Xrotation Yrotation Zrotation
						End Site
						{
							OFFSET	1	0	0
						}
					}
				}
			}
		}
	}
}
MOTION
Frames: 13
Frame Time: 0.02
3519.67 758.994 -718.023 -10.8362 56.5785 5.37702 1.45422 0.147351 0.209088 1.45423 0.133747 0.21804 1.45475 0.091032 0.239046 1.4547 0.127642 0.221669 -14.1138 2.09161 10.3855 -13.8143 -2.35134 10.5224 -0.0 0.0 -0.0 2.01839 10.1454 4.67326 -23.2932 -31.174 78.3777 0.58054 -16.0445 0.0818199 0.00941208 0.000331629 -0.00115629 1.54592 14.4541 15.7563 -0.0 0.0 -0.0 10.6591 -7.2837 -20.415 -79.7668 64.5782 6.65189 0.994192 26.2194 -0.231539 -9.76895 0.444804 -1.16555 -5.35512 0.741899 39.2082 0.0 0.0 0.0 15.8535 -23.5955 6.93454 -15.66 0.322073 2.37415 33.5609 26.5036 -4.55007 -10.0442 0.0 0.0 -0.0 0.0 -0.0 8.03339 -37.8569 14.4377 0.116734 0.00482456 0.0172641 11.3993 10.9463 1.70241 15.0692 -0.0 -0.0 0.0 0.0 0.0 
3505.96 760.19 -714.053 -10.5504 55.8968 5.23989 1.38895 0.0579932 -0.0131395 1.38895 0.0587117 -0.00942259 1.38894 0.0594391 0.00168743 1.38895 0.0589596 -0.00772104 -14.4836 3.70119 11.036 -14.141 0.398534 11.634 -0.0 0.0 -0.0 1.83669 9.2001 4.28911 -21.691 -31.1325 77.8553 0.571338 -15.8029 0.0792953 0.0817507 0.0028734 -0.0100452 1.61929 14.8547 16.3679 -0.0 0.0 -0.0 10.471 -7.08409 -20.0689 -80.19 64.4499 6.79311 1.00125 26.3803 -0.234664 -10.2486 0.471715 -1.2207 -5.36608 1.32829 39.6746 0.0 0.0 0.0 15.5577 -23.1225 7.6802 -16.6232 0.320559 2.52193 34.6534 26.0142 -4.6545 -9.88221 0.0 0.0 -0.0 0.0 -0.0 7.05389 -38.16 14.4301 2.05387 0.0900104 0.302292 11.3758 9.12531 1.68181 14.2085 -0.0 -0.0 0.0 0.0 0.0 
3495.21 764.587 -709.15 -11.0556 55.4426 5.39292 1.4332 0.0357813 0.280345 1.43324 0.0178698 0.282053 1.43333 -0.0348058 0.280467 1.43322 0.0099254 0.282444 -15.3192 5.00753 11.7199 -14.938 2.66881 12.7096 -0.0 0.0 -0.0 1.98936 8.14797 4.47817 -21.5482 -30.8528 75.7866 0.531555 -14.7523 0.0688124 0.285256 0.00996356 -0.0350686 1.56845 15.0016 16.0865 -0.0 0.0 -0.0 10.3546 -7.9286 -19.7552 -79.3753 64.8087 6.08127 1.15559 29.7878 -0.307357 -9.95156 0.454994 -1.18657 -5.40292 0.549867 39.5024 0.0 0.0 0.0 15.6729 -23.6334 7.91294 -16.7764 0.320089 2.54543 32.8139 26.4622 -4.46598 -9.75088 0.0 0.0 -0.0 0.0 -0.0 7.67724 -38.4689 15.1067 3.71174 0.170549 0.543876 8.22571 7.09841 1.2182 12.9858 -0.0 -0.0 0.0 0.0 0.0 
3481.75 762.124 -703.072 -10.4968 55.5006 5.7714 1.2769 -0.0326934 -0.108039 1.27691 -0.0257523 -0.109901 1.27696 -0.00459319 -0.112784 1.27694 -0.0223477 -0.110643 -12.8203 5.69641 11.3682 -12.4657 3.64174 12.5153 -0.0 0.0 -0.0 1.68458 7.60773 3.89602 -20.3025 -31.0271 76.4208 0.564815 -15.6314 0.0775284 0.120642 0.00423502 -0.0148254 1.63948 15.1426 16.5948 -0.0 0.0 -0.0 10.3488 -7.09398 -19.8297 -81.0444 65.1738 7.29493 0.960222 25.4384 -0.216738 -10.6348 0.493718 -1.26494 -5.38616 2.12104 40.3485 0.0 0.0 0.0 15.1642 -22.4319 8.46483 -17.0618 0.319046 2.5892 34.9688 25.8976 -4.68487 -9.69559 0.0 0.0 -0.0 0.0 -0.0 7.99779 -37.7748 14.6927 3.41733 0.155735 0.501143 11.143 6.7933 1.6301 13.5585 -0.0 -0.0 0.0 0.0 0.0 
3478.3 765.797 -701.563 -9.52805 55.8843 5.30109 1.25908 -0.0234361 -0.123092 1.25909 -0.0155559 -0.124334 1.25913 0.00817803 -0.125036 1.25911 -0.0116717 -0.124759 -12.5903 6.55506 11.4328 -12.2395 5.18346 12.8112 -0.0 0.0 -0.0 1.77423 7.32652 4.03304 -19.8483 -32.0174 74.3942 0.595119 -16.4259 0.085896 -0.123756 -0.00437697 0.0151989 1.65463 15.0294 16.6559 -0.0 0.0 -0.0 10.2883 -7.13772 -19.7076 -78.5422 65.5362 5.01506 1.11855 28.9899 -0.289181 -10.7552 0.500633 -1.27869 -5.38113 2.71609 40.6736 0.0 0.0 0.0 14.2129 -22.8416 8.51151 -17.3647 0.317701 2.63566 34.4713 25.9881 -4.63408 -9.84817 0.0 0.0 -0.0 0.0 -0.0 8.20884 -37.9027 14.0107 4.07241 0.188996 0.596125 11.1021 5.10039 1.61268 13.3398 -0.0 -0.0 0.0 0.0 0.0 
3470.63 766.58 -699.845 -8.73237 56.373 4.51403 1.175 -0.0136914 -0.182166 1.17502 -0.00207194 -0.182668 1.17503 0.0326881 -0.179731 1.17498 0.00389269 -0.182638 -12.4873 9.11512 11.8109 -12.1504 9.79485 13.8808 -0.0 0.0 -0.0 2.14512 6.16279 4.61047 -16.7025 -32.5196 73.0762 0.569464 -15.7537 0.0787858 -0.0890879 -0.00314763 0.0109421 1.39688 16.8454 15.5943 -0.0 0.0 -0.0 10.2606 -8.47907 -19.5164 -76.3144 66.1871 2.72519 1.32017 33.1819 -0.393348 -11.6571 0.553396 -1.38132 -5.45771 2.01402 40.917 0.0 0.0 0.0 13.3 -21.6621 8.65288 -17.3878 0.317588 2.6392 32.926 25.8494 -4.46088 -9.98832 0.0 0.0 -0.0 0.0 -0.0 9.35418 -39.3364 15.2256 3.82861 0.17649 0.560818 10.4668 2.7744 1.51124 13.0927 -0.0 -0.0 0.0 0.0 0.0 
3461.92 767.374 -700.044 -8.65559 56.8925 4.86971 1.19826 -0.0609163 -0.304279 1.19831 -0.0414309 -0.307539 1.19854 0.0176553 -0.309814 1.19841 -0.0314954 -0.308714 -12.5898 10.7281 11.7507 -12.2982 12.939 14.2895 -0.0 0.0 -0.0 2.42962 5.01163 5.04684 -13.0241 -33.3078 70.7702 0.589167 -16.2703 0.0842205 -0.236564 -0.0083951 0.0290453 1.19372 18.002 14.6905 -0.0 0.0 -0.0 10.1592 -9.17266 -19.2484 -74.8514 66.2291 1.24699 1.56105 37.712 -0.533156 -12.2811 0.590842 -1.45183 -5.48736 1.72703 40.9997 0.0 0.0 0.0 12.4444 -20.6529 7.97628 -17.5447 0.316785 2.66326 31.9748 25.9119 -4.35629 -10.1863 0.0 0.0 -0.0 0.0 -0.0 9.06329 -39.8345 14.8169 4.52825 0.212782 0.661995 9.94628 0.624797 1.42977 12.9262 -0.0 -0.0 0.0 0.0 0.0 
3451.63 771.242 -700.033 -8.53481 57.0053 5.23114 1.32029 -0.0561012 -0.27778 1.32033 -0.0383118 -0.280786 1.32053 0.015041 -0.282989 1.32042 -0.0298404 -0.281813 -12.7597 11.9873 11.8442 -12.5041 15.3317 14.7611 -0.0 0.0 -0.0 2.3616 4.25714 4.86831 -9.79694 -34.5969 70.0626 0.594718 -16.4154 0.0857827 -0.412483 -0.0147161 0.0506222 1.00536 18.9894 13.8435 -0.0 0.0 -0.0 9.8457 -9.58351 -18.6139 -72.3344 66.5993 -1.32415 1.83912 42.3308 -0.712123 -12.5745 0.608717 -1.48485 -5.57848 1.4002 41.6077 0.0 0.0 0.0 11.445 -17.5622 7.32187 -17.0419 0.319126 2.58614 30.2678 27.0498 -4.19182 -10.4447 0.0 0.0 -0.0 0.0 -0.0 8.28783 -40.3327 13.5694 5.41855 0.26075 0.790103 10.0381 -0.776749 1.43767 12.8363 -0.0 -0.0 0.0 0.0 0.0 
3443.22 772.261 -699.999 -7.93837 58.0167 5.06968 1.18899 -0.056942 -0.268202 1.18903 -0.0397603 -0.271281 1.18922 0.0124628 -0.273896 1.18912 -0.0309502 -0.272427 -12.8474 12.849 11.9152 -12.6208 16.9601 15.093 -0.0 0.0 -0.0 2.81618 3.50425 5.66175 -8.68781 -34.7869 69.1269 0.574449 -15.8847 0.0801445 -0.552778 -0.0198047 0.067816 0.913066 19.502 13.4451 -0.0 0.0 -0.0 9.90446 -9.94751 -18.6853 -70.7515 67.0819 -3.18166 1.93882 43.8391 -0.780229 -12.8331 0.624609 -1.51387 -5.557 1.29136 41.3439 0.0 0.0 0.0 10.7641 -18.4656 7.36439 -17.5139 0.316948 2.65853 30.2289 26.134 -4.16253 -10.5164 0.0 0.0 -0.0 0.0 -0.0 7.82881 -41.3301 13.1127 4.89876 0.232502 0.715397 10.128 -1.80157 1.44708 12.8342 -0.0 -0.0 0.0 0.0 0.0 
3432.75 771.499 -699.878 -7.79271 58.6556 5.27494 1.26969 -0.0364881 -0.271784 1.26973 -0.0191199 -0.273555 1.26983 0.0327768 -0.272257 1.26972 -0.0106322 -0.274016 -13.3045 13.4802 12.2708 -13.0909 18.0731 15.6843 -0.0 0.0 -0.0 2.90855 3.12761 5.81055 -7.55697 -35.3582 68.0178 0.589344 -16.275 0.0842702 -0.680331 -0.0244672 0.0834375 0.819585 19.8025 12.972 -0.0 0.0 -0.0 10.1074 -10.4304 -19.0101 -69.5938 67.4144 -4.07931 2.10001 46.1255 -0.894199 -13.0727 0.639452 -1.5407 -5.54767 1.34667 41.2959 0.0 0.0 0.0 9.87872 -16.882 7.01106 -17.7227 0.315794 2.69055 29.8916 26.1675 -4.12414 -10.6355 0.0 0.0 -0.0 0.0 -0.0 7.5792 -41.4162 13.0249 4.80992 0.227742 0.702605 10.215 -2.50844 1.45726 12.8637 -0.0 -0.0 0.0 0.0 0.0 
3423.78 774.277 -702.295 -6.61361 59.8065 4.49596 1.30012 -0.139496 -0.381949 1.30019 -0.114909 -0.390051 1.301 -0.0395633 -0.404696 1.30078 -0.10298 -0.393369 -14.8116 13.4576 12.9122 -14.5982 18.0643 16.5204 -0.0 0.0 -0.0 3.0185 1.68765 5.92701 -7.01478 -35.8307 67.0884 0.5849 -16.1587 0.0830292 -0.883345 -0.0319606 0.10828 0.700559 20.357 12.4343 -0.0 0.0 -0.0 9.39135 -10.941 -17.6329 -67.8686 68.4021 -5.43756 2.48814 50.9386 -1.18529 -12.7402 0.618883 -1.50345 -5.59674 1.3247 41.7235 0.0 0.0 0.0 7.73806 -12.4101 6.36539 -16.271 0.3214 2.46789 28.9643 26.2461 -4.01715 -11.2565 0.0 0.0 -0.0 0.0 -0.0 8.59946 -44.0457 12.516 4.35299 0.203574 0.636691 12.0102 -3.87329 1.69881 12.9789 -0.0 -0.0 0.0 0.0 0.0 
3412.43 777.69 -705.08 -7.05336 61.0062 5.3698 1.27558 -0.183026 -0.429072 1.27567 -0.155352 -0.439849 1.2769 -0.0697353 -0.461236 1.27663 -0.141703 -0.444434 -15.5977 13.5526 13.524 -15.3638 18.1115 17.2509 -0.0 0.0 -0.0 3.52131 1.43719 6.87032 -6.48485 -36.5407 66.6315 0.567892 -15.7124 0.0783596 -0.50665 -0.0181269 0.062164 0.651431 21.5233 12.536 -0.0 0.0 -0.0 9.46886 -12.051 -17.6564 -64.2696 70.2582 -9.18826 2.54873 51.611 -1.23256 -11.5784 0.548729 -1.3724 -5.68973 0.445472 41.9858 0.0 0.0 0.0 6.32579 -12.2887 5.86242 -14.7225 0.321161 2.23031 27.9611 25.5351 -3.88045 -10.7969 0.0 0.0 -0.0 0.0 -0.0 9.97106 -42.9764 11.4522 4.9834 0.237055 0.727579 11.1894 -5.77794 1.58482 13.8145 -0.0 -0.0 0.0 0.0 0.0 
3404.46 783.057 -710.493 -5.02296 62.5933 4.1952 0.970803 -0.361005 -0.522689 0.970896 -0.327014 -0.544601 0.974093 -0.215451 -0.597585 0.973726 -0.307123 -0.55606 -18.3665 11.9415 11.6523 -18.3115 16.776 15.4522 -0.0 0.0 -0.0 5.4384 -2.39683 10.4463 -6.72764 -34.1452 63.1896 0.557643 -15.4424 0.0756072 1.88121 0.0624733 -0.23214 0.42857 20.5822 10.8651 -0.0 0.0 -0.0 9.85068 -11.901 -18.3654 -64.0911 68.9872 -9.35524 3.07122 56.6715 -1.65643 -11.137 0.522771 -1.32223 -5.51666 0.393629 40.4012 0.0 0.0 0.0 1.56071 -12.3311 4.6493 -8.60132 0.257432 1.2937 24.0347 24.5015 -3.3782 -13.5361 0.0 0.0 -0.0 0.0 -0.0 19.0148 -39.6989 13.8962 -3.91712 -0.141344 -0.584426 19.9251 -3.92415 2.72565 13.9786 -0.0 -0.0 0.0 0.0 0.0 
